<?xml version="1.0" standalone="no"?>
<!DOCTYPE svg PUBLIC "-//W3C//DTD SVG 20010904//EN"
 "http://www.w3.org/TR/2001/REC-SVG-20010904/DTD/svg10.dtd">
<svg version="1.0" xmlns="http://www.w3.org/2000/svg"
 width="275.000000pt" height="275.000000pt" viewBox="0 0 275.000000 275.000000"
 preserveAspectRatio="xMidYMid meet">

<g transform="translate(0.000000,275.000000) scale(0.100000,-0.100000)"
fill="#000000" stroke="none">
<path d="M545 2738 c-16 -6 -44 -21 -62 -34 -34 -26 -83 -118 -83 -156 0 -32
36 -87 63 -97 23 -9 34 -42 13 -38 -6 1 -11 -9 -11 -23 0 -36 85 -87 123 -74
16 6 26 16 24 26 -1 9 11 30 28 46 16 17 30 35 30 41 0 5 -21 16 -47 23 -32 9
-51 21 -58 36 -6 14 -16 20 -25 17 -8 -3 8 17 36 46 44 43 58 52 97 56 44 5
47 4 58 -23 l12 -29 7 25 c15 48 10 70 -26 110 -49 54 -112 71 -179 48z m-33
-245 c-9 -3 -10 -9 -2 -18 7 -9 7 -20 0 -36 -10 -23 -10 -23 -5 3 3 15 1 30
-5 33 -16 10 -11 25 8 24 11 0 12 -2 4 -6z"/>
<path d="M2145 2728 c-38 -20 -47 -40 -28 -60 16 -18 16 -21 -1 -53 -13 -24
-17 -44 -12 -70 6 -32 4 -37 -14 -42 -13 -4 -19 -11 -16 -20 3 -8 6 -35 6 -59
0 -42 2 -46 36 -60 35 -15 37 -14 63 10 18 17 48 30 91 39 61 12 66 15 94 60
24 39 29 59 30 111 1 55 -3 68 -23 90 -47 50 -176 82 -226 54z"/>
<path d="M595 2560 c-17 -19 -17 -21 0 -40 23 -26 78 -28 73 -3 -2 11 -13 18
-28 18 -19 0 -25 5 -24 23 1 27 1 27 -21 2z"/>
<path d="M680 2511 c0 -18 18 -21 30 -6 10 13 9 15 -9 15 -11 0 -21 -4 -21 -9z"/>
<path d="M2220 2363 c-22 -8 -101 -85 -110 -108 -4 -11 -59 -85 -121 -165 -85
-108 -114 -152 -114 -174 0 -28 -1 -29 -55 -31 -46 -2 -62 2 -102 28 -26 16
-49 36 -52 44 -9 22 -116 -54 -116 -83 0 -12 5 -26 10 -29 6 -3 10 -21 10 -39
0 -31 6 -36 78 -78 92 -55 136 -70 222 -77 l65 -6 3 -33 c2 -20 -10 -72 -29
-125 -23 -66 -33 -113 -34 -167 -3 -79 -23 -183 -55 -289 -32 -103 -28 -140
31 -250 83 -154 110 -184 210 -226 62 -26 90 -44 102 -65 22 -36 22 -39 -8
-50 -24 -9 -24 -10 -10 -51 22 -60 18 -113 -10 -169 -32 -63 -31 -83 1 -109
29 -23 117 -30 130 -10 3 6 25 19 48 30 22 10 57 28 76 39 19 11 42 20 52 20
9 0 20 5 23 11 12 19 -6 79 -31 102 -24 22 -24 24 -9 60 19 45 19 77 0 147 -9
30 -22 100 -30 155 -8 55 -19 129 -25 165 -5 36 -10 84 -10 108 0 35 -4 44
-25 54 -30 14 -30 17 -5 66 11 21 25 64 31 95 10 59 56 139 87 156 10 5 47 7
83 4 37 -3 69 -1 72 3 3 5 1 87 -3 182 l-9 172 39 63 c22 34 40 71 40 82 0 11
-9 49 -20 85 -39 127 -70 261 -70 305 0 38 -4 47 -37 73 -65 51 -104 65 -193
72 -47 4 -92 10 -100 13 -8 3 -22 3 -30 0z m-124 -1265 c4 -6 3 -8 -4 -4 -6 3
-15 -2 -21 -11 -6 -10 -11 -13 -11 -7 0 9 19 34 26 34 2 0 6 -5 10 -12z m34
-149 c0 -23 4 -58 10 -78 5 -20 17 -71 26 -113 13 -65 24 -88 70 -149 78 -102
80 -107 49 -119 -36 -14 -52 -4 -60 36 -4 24 -27 57 -72 105 l-67 70 -46 -6
c-40 -5 -48 -3 -69 19 -23 24 -22 46 2 46 7 0 6 -4 -3 -10 -12 -7 -12 -12 4
-29 15 -16 29 -20 71 -18 50 2 52 3 44 25 -5 13 -9 35 -9 48 0 33 -22 54 -49
47 -22 -6 -42 23 -25 36 15 10 11 72 -4 66 -7 -3 -11 -1 -8 4 3 4 28 6 56 3
l50 -5 0 32 c0 21 5 31 15 31 11 0 15 -11 15 -41z m-132 24 c-10 -2 -26 -2
-35 0 -10 3 -2 5 17 5 19 0 27 -2 18 -5z m-8 -99 c0 -2 -9 0 -20 6 -11 6 -20
13 -20 16 0 2 9 0 20 -6 11 -6 20 -13 20 -16z m-80 -44 c-13 -9 -13 -11 0 -20
9 -6 10 -10 3 -10 -6 0 -15 5 -18 10 -8 13 3 30 18 30 7 0 6 -4 -3 -10z m126
-49 c-4 -6 -13 -11 -19 -11 -8 0 -7 3 2 9 8 5 10 14 6 22 -6 11 -5 11 5 2 7
-6 9 -16 6 -22z m-63 12 c-7 -2 -19 -2 -25 0 -7 3 -2 5 12 5 14 0 19 -2 13 -5z"/>
<path d="M2040 906 c0 -9 7 -12 20 -9 31 8 34 23 6 23 -16 0 -26 -6 -26 -14z"/>
<path d="M825 2235 c7 -76 24 -115 49 -115 13 0 29 -6 35 -14 39 -47 257 -102
370 -93 40 3 82 0 110 -9 49 -14 57 -13 48 11 -7 15 -21 22 -91 45 -34 11 -40
10 -48 -4 -11 -20 -44 -21 -55 -2 -11 20 -111 25 -123 6 -11 -18 -30 -3 -34
26 -3 16 -11 19 -51 16 -39 -3 -47 0 -42 11 4 10 -2 17 -15 20 -11 3 -17 10
-14 15 6 10 -53 61 -101 85 -17 9 -34 22 -37 29 -3 7 -4 -5 -1 -27z m510 -192
c-11 -3 -23 -10 -27 -17 -5 -7 -8 -7 -8 0 0 16 11 24 34 23 20 -1 20 -1 1 -6z
m55 -13 c0 -5 -2 -10 -4 -10 -3 0 -8 5 -11 10 -3 6 -1 10 4 10 6 0 11 -4 11
-10z"/>
<path d="M382 2033 c3 -67 2 -105 -3 -88 -7 29 -8 28 -7 -10 0 -109 2 -105
-41 -105 -22 0 -42 -4 -45 -9 -3 -5 9 -8 27 -7 46 2 45 -33 -2 -49 -26 -8 -30
-13 -20 -21 25 -20 47 -23 53 -8 3 8 14 14 25 14 17 0 20 -10 25 -87 3 -49 15
-128 27 -178 28 -118 106 -338 134 -380 20 -28 22 -39 14 -78 -10 -54 -12
-214 -3 -278 6 -41 3 -49 -23 -80 -42 -48 -60 -86 -72 -154 -18 -101 5 -157
69 -171 14 -3 31 -7 38 -10 17 -5 15 -49 -3 -64 -8 -7 -15 -16 -15 -20 0 -22
156 -55 178 -38 19 17 14 88 -13 168 -14 40 -25 93 -25 116 0 46 53 204 73
216 7 4 33 8 59 8 52 0 50 -3 63 85 3 22 10 132 15 245 6 113 15 225 20 250
12 60 13 282 0 314 -11 29 -34 33 -75 12 -21 -11 -33 -12 -51 -4 -13 6 -24 15
-24 20 0 4 -6 8 -14 8 -9 0 -12 7 -9 19 7 28 -12 34 -67 20 -41 -10 -54 -10
-75 1 -31 17 -39 10 -30 -29 8 -37 21 -39 92 -9 29 12 55 20 57 17 2 -2 7 -15
10 -29 5 -16 4 -20 -2 -12 -7 11 -17 10 -53 -4 -24 -9 -50 -22 -57 -27 -7 -5
-34 -11 -60 -13 -31 -2 -40 0 -27 5 19 7 18 10 -18 46 -20 20 -37 43 -37 50 0
28 -14 45 -61 76 -27 17 -49 35 -49 39 0 4 13 13 29 18 23 8 29 8 25 -2 -3 -7
2 -19 11 -26 12 -10 18 -10 30 0 13 11 14 10 10 -2 -7 -17 20 -32 38 -21 7 4
8 0 3 -13 -6 -15 -5 -16 5 -7 16 16 -27 63 -57 63 -27 0 -27 25 0 47 20 17 20
17 7 1 -17 -22 -8 -23 24 -2 14 9 22 21 18 27 -3 5 -1 7 4 4 11 -7 93 66 93
82 0 4 -32 11 -71 14 -39 3 -74 8 -77 11 -9 10 21 67 46 86 27 22 18 26 -22
10 -16 -6 -26 -17 -26 -30 0 -16 -4 -18 -24 -10 -13 5 -26 6 -29 3 -3 -3 -3 4
0 16 8 30 -4 68 -23 75 -16 6 -17 -4 -12 -111z m21 27 c-3 -11 -7 -20 -9 -20
-2 0 -4 9 -4 20 0 11 4 20 9 20 5 0 7 -9 4 -20z m24 -57 c-3 -10 -5 -4 -5 12
0 17 2 24 5 18 2 -7 2 -21 0 -30z m71 -30 c-10 -2 -28 -2 -40 0 -13 2 -5 4 17
4 22 1 32 -1 23 -4z m12 -45 c0 -28 -90 -52 -105 -28 -4 6 -1 9 7 8 7 -2 12 2
11 9 -2 7 4 10 12 7 8 -4 15 -1 15 5 0 6 7 8 15 5 8 -4 15 -1 15 5 0 6 7 8 15
5 8 -4 15 -10 15 -16z m57 -4 c-3 -3 -12 -4 -19 -1 -8 3 -5 6 6 6 11 1 17 -2
13 -5z m-117 -50 c0 -8 -19 -13 -24 -6 -3 5 1 9 9 9 8 0 15 -2 15 -3z m-16
-250 c3 -8 2 -12 -4 -9 -6 3 -10 10 -10 16 0 14 7 11 14 -7z m291 -24 c-3 -5
-14 -10 -23 -9 -14 0 -13 2 3 9 27 11 27 11 20 0z m-47 -92 c20 -20 14 -38
-12 -38 -14 0 -27 4 -30 9 -3 4 6 6 19 3 32 -6 33 15 3 28 -14 5 -17 9 -7 9 8
1 20 -4 27 -11z m145 -3 c-3 -9 -8 -14 -10 -11 -3 3 -2 9 2 15 9 16 15 13 8
-4z m-135 -132 c-10 -2 -18 -9 -18 -15 0 -6 -3 -9 -6 -5 -10 10 6 27 24 26 15
-1 15 -2 0 -6z m43 -20 c13 -16 12 -17 -3 -4 -10 7 -18 15 -18 17 0 8 8 3 21
-13z m-54 -35 c-3 -8 -6 -5 -6 6 -1 11 2 17 5 13 3 -3 4 -12 1 -19z m193 -38
c0 -4 -13 -10 -30 -12 -16 -3 -30 -1 -30 4 0 4 12 8 26 8 24 0 25 2 13 18 -13
15 -12 16 4 3 9 -7 17 -17 17 -21z m-159 2 c-7 -2 -18 1 -23 6 -8 8 -4 9 13 5
13 -4 18 -8 10 -11z m12 -127 c-3 -9 -8 -14 -10 -11 -3 3 -2 9 2 15 9 16 15
13 8 -4z m32 -76 c14 -5 15 -8 5 -8 -22 -1 -40 19 -39 44 1 17 2 17 8 -4 3
-13 15 -28 26 -32z m32 9 c-3 -7 -5 -2 -5 12 0 14 2 19 5 13 2 -7 2 -19 0 -25z
m-29 -189 c-3 -33 -4 -33 -8 8 -3 23 -2 39 3 34 5 -5 7 -24 5 -42z m-41 -1
c-3 -8 -6 -5 -6 6 -1 11 2 17 5 13 3 -3 4 -12 1 -19z m14 -36 c-7 -2 -18 1
-23 6 -8 8 -4 9 13 5 13 -4 18 -8 10 -11z"/>
<path d="M573 2093 c9 -2 25 -2 35 0 9 3 1 5 -18 5 -19 0 -27 -2 -17 -5z"/>
<path d="M258 1853 c7 -3 16 -2 19 1 4 3 -2 6 -13 5 -11 0 -14 -3 -6 -6z"/>
<path d="M174 1566 c-8 -22 -1 -28 26 -24 l22 3 -21 19 c-19 17 -21 17 -27 2z"/>
<path d="M227 1483 c-4 -4 -19 -7 -32 -8 -14 0 -24 -4 -23 -10 2 -5 10 -8 18
-6 8 2 27 4 43 5 15 0 26 5 24 10 -4 13 -22 18 -30 9z"/>
</g>
</svg>
